<svg width="762" height="122" viewBox="0 0 762 122" fill="none" xmlns="http://www.w3.org/2000/svg">
<path d="M39.8417 38L74.3456 100.964H5.33777L39.8417 38Z" fill="#B38181"/>
<ellipse cx="721.842" cy="67.3516" rx="39.8417" ry="37.3516" fill="#B28181"/>
<path d="M160.276 74.4359L175.137 74.1174C175.703 74.1174 175.986 74.7189 175.986 75.922C175.986 77.125 175.703 77.7265 175.137 77.7265H171.846C170.077 77.7265 168.91 78.0804 168.344 78.788C167.777 79.4249 167.494 81.4772 167.494 84.9448C167.494 88.3416 167.565 91.8446 167.707 95.4537C167.919 98.992 168.096 101.469 168.237 102.884C168.45 104.229 168.627 105.396 168.768 106.387C168.98 107.378 169.087 108.086 169.087 108.51C169.087 109.359 168.52 109.784 167.388 109.784C166.964 109.784 166.256 108.475 165.265 105.856C164.345 103.238 163.39 101.929 162.399 101.929C155.889 104.76 149.06 106.175 141.912 106.175C129.669 106.175 119.55 103.132 111.553 97.0459C103.556 90.96 99.558 82.5033 99.558 71.676C99.558 63.467 101.646 56.3195 105.821 50.2335C110.067 44.1476 115.445 39.6539 121.956 36.7524C128.466 33.7802 135.543 32.2941 143.186 32.2941C146.512 32.2941 149.343 32.6126 151.678 33.2495C154.013 33.8156 156.915 34.771 160.382 36.1155V33.8864C160.382 33.2495 160.878 32.931 161.868 32.931C162.93 32.931 163.461 33.2495 163.461 33.8864C163.461 40.3262 163.779 45.6691 164.416 49.9151C164.487 50.1982 164.31 50.4458 163.885 50.6581C163.531 50.8704 162.965 50.9766 162.187 50.9766C161.479 50.9766 161.09 50.6581 161.019 50.0212L160.276 45.3506C154.119 39.76 147.644 36.9647 140.851 36.9647C132.854 36.9647 126.166 39.8308 120.788 45.5629C115.41 51.2243 112.721 59.1502 112.721 69.3406C112.721 79.4603 115.551 87.3508 121.213 93.0122C126.874 98.6028 133.986 101.398 142.549 101.398C148.14 101.398 152.386 99.912 155.287 96.9398V87.1739C155.287 80.9464 154.544 77.8327 153.058 77.8327H141.806C141.24 77.8327 140.957 77.2665 140.957 76.1343C140.957 74.9312 141.24 74.3297 141.806 74.3297L160.276 74.4359ZM181.358 104.795L172.972 105.007C172.476 105.007 172.229 104.547 172.229 103.627C172.229 102.707 172.476 102.247 172.972 102.247H176.369C177.147 102.247 177.713 101.929 178.067 101.292C179.695 98.6028 182.95 91.4553 187.833 79.8495C192.716 68.173 196.219 59.3271 198.342 53.3119C198.625 52.675 199.297 52.3566 200.359 52.3566C201.491 52.3566 202.199 52.7104 202.482 53.4181C203.331 56.9564 205.808 63.6439 209.912 73.4805C214.087 83.3171 217.732 91.5261 220.846 98.1074C221.695 99.8058 222.473 100.903 223.181 101.398C223.889 101.893 224.986 102.141 226.472 102.141C226.896 102.141 227.109 102.637 227.109 103.627C227.109 104.547 226.932 105.007 226.578 105.007L216.387 104.795L204.923 105.007C204.499 105.007 204.286 104.547 204.286 103.627C204.286 102.707 204.499 102.247 204.923 102.247H210.018C210.797 102.247 211.186 101.929 211.186 101.292C211.186 101.221 209.205 95.7721 205.242 84.9448H190.487C187.019 93.5076 185.285 98.532 185.285 100.018C185.285 101.433 185.71 102.141 186.559 102.141H190.911C191.477 102.141 191.76 102.637 191.76 103.627C191.76 104.547 191.548 105.007 191.124 105.007L181.358 104.795ZM203.862 81.3357C203.649 80.6987 201.809 75.3205 198.342 65.2008H198.023C196.325 70.0837 194.308 75.462 191.973 81.3357H203.862ZM281.717 53.8427L295.623 53.5242C296.189 53.5242 296.472 54.055 296.472 55.1165C296.472 56.1072 296.189 56.6026 295.623 56.6026H292.969C291.412 56.6026 290.634 57.9118 290.634 60.5301C290.634 61.6624 291.129 67.253 292.12 77.3019C293.182 87.3508 293.854 93.8968 294.137 96.9398C294.491 99.9828 295.128 101.504 296.048 101.504H300.718C301.355 101.504 301.674 102.07 301.674 103.203C301.674 104.264 301.391 104.795 300.824 104.795L290.422 104.689L279.7 105.007C279.205 105.007 278.957 104.476 278.957 103.415C278.957 102.353 279.17 101.823 279.594 101.823H282.885C284.796 101.823 285.68 101.009 285.539 99.3812C284.123 79.5665 283.345 68.3499 283.203 65.7315H282.779C276.197 79.6019 270.748 92.163 266.432 103.415C266.149 104.052 265.441 104.37 264.309 104.37C263.247 104.37 262.575 104.016 262.292 103.309C260.381 98.3551 255.215 85.5463 246.794 64.8823H246.475C245.414 79.5311 244.883 88.2001 244.883 90.8892C244.883 93.5783 244.883 95.0291 244.883 95.2414C244.883 99.4166 245.52 101.504 246.794 101.504H250.084C250.792 101.504 251.146 102.07 251.146 103.203C251.146 104.264 250.792 104.795 250.084 104.795L241.592 104.689L231.402 105.007C230.977 105.007 230.765 104.476 230.765 103.415C230.765 102.353 231.013 101.823 231.508 101.823H234.056C235.754 101.823 236.78 101.646 237.134 101.292C237.559 100.867 237.842 100.337 237.983 99.6997C238.479 96.7982 239.222 90.5 240.212 80.8049C241.274 71.1098 241.805 65.1654 241.805 62.9716C241.875 60.7071 241.734 59.1148 241.38 58.1948C241.097 57.2749 240.531 56.8149 239.682 56.8149H236.709C236.285 56.8149 236.073 56.2841 236.073 55.2226C236.073 54.0903 236.285 53.5242 236.709 53.5242L246.9 53.8427H251.889C252.526 55.6826 257.197 68.4914 265.901 92.2692H266.325C271.279 81.6541 276.41 68.8453 281.717 53.8427ZM310.208 53.5242L321.035 53.7365H343.008V52.0381C343.008 51.6135 343.468 51.4012 344.388 51.4012C345.379 51.4012 345.874 51.6135 345.874 52.0381C345.874 57.6287 346.122 61.627 346.618 64.0331C346.759 64.4577 346.37 64.67 345.45 64.67C344.247 64.67 343.645 64.4577 343.645 64.0331C342.655 60.7778 341.699 58.9379 340.779 58.5133C337.807 57.4518 333.49 56.921 327.829 56.921C326.838 56.9918 326.166 57.2749 325.812 57.7702C325.458 58.2656 325.281 59.1502 325.281 60.424V77.8327C333.844 77.5496 338.55 77.1604 339.399 76.665L340.142 72.2067C340.284 71.8529 340.779 71.676 341.628 71.676C342.548 71.676 343.008 71.9236 343.008 72.419C342.725 74.4713 342.584 76.7712 342.584 79.3188C342.584 81.7956 342.725 84.0602 343.008 86.1124C343.008 86.537 342.513 86.7493 341.522 86.7493C340.602 86.7493 340.142 86.6078 340.142 86.3247L339.293 81.7603C338.444 81.2649 333.773 80.8757 325.281 80.5926V93.4368C325.281 98.7443 325.989 101.398 327.404 101.398H330.801C338.585 101.257 343.964 100.16 346.936 98.1074L347.467 93.9676C347.608 93.543 347.962 93.3307 348.528 93.3307C349.165 93.3307 349.59 93.3307 349.802 93.3307C350.227 93.4722 350.439 93.6845 350.439 93.9676C350.014 96.9398 349.802 101.115 349.802 106.493C349.802 106.847 349.307 107.024 348.316 107.024C347.396 107.024 346.936 106.847 346.936 106.493V104.795H328.041L309.996 105.007C309.5 105.007 309.253 104.476 309.253 103.415C309.253 102.353 309.465 101.823 309.889 101.823H314.666C315.445 101.823 315.905 101.681 316.046 101.398C316.188 101.044 316.258 100.16 316.258 98.7443V65.3069C316.258 59.6456 315.551 56.8149 314.135 56.8149H310.314C309.465 56.8149 309.04 56.2841 309.04 55.2226C309.04 54.0903 309.429 53.5242 310.208 53.5242ZM436.693 53.8427L450.599 53.5242C451.165 53.5242 451.448 54.055 451.448 55.1165C451.448 56.1072 451.165 56.6026 450.599 56.6026H447.945C446.388 56.6026 445.61 57.9118 445.61 60.5301C445.61 61.6624 446.105 67.253 447.096 77.3019C448.157 87.3508 448.829 93.8968 449.113 96.9398C449.466 99.9828 450.103 101.504 451.023 101.504H455.694C456.331 101.504 456.649 102.07 456.649 103.203C456.649 104.264 456.366 104.795 455.8 104.795L445.397 104.689L434.676 105.007C434.181 105.007 433.933 104.476 433.933 103.415C433.933 102.353 434.145 101.823 434.57 101.823H437.861C439.771 101.823 440.656 101.009 440.514 99.3812C439.099 79.5665 438.321 68.3499 438.179 65.7315H437.754C431.173 79.6019 425.724 92.163 421.407 103.415C421.124 104.052 420.416 104.37 419.284 104.37C418.223 104.37 417.55 104.016 417.267 103.309C415.357 98.3551 410.191 85.5463 401.769 64.8823H401.451C400.389 79.5311 399.859 88.2001 399.859 90.8892C399.859 93.5783 399.859 95.0291 399.859 95.2414C399.859 99.4166 400.496 101.504 401.769 101.504H405.06C405.768 101.504 406.122 102.07 406.122 103.203C406.122 104.264 405.768 104.795 405.06 104.795L396.568 104.689L386.378 105.007C385.953 105.007 385.741 104.476 385.741 103.415C385.741 102.353 385.988 101.823 386.484 101.823H389.031C390.73 101.823 391.756 101.646 392.11 101.292C392.534 100.867 392.817 100.337 392.959 99.6997C393.454 96.7982 394.197 90.5 395.188 80.8049C396.25 71.1098 396.78 65.1654 396.78 62.9716C396.851 60.7071 396.71 59.1148 396.356 58.1948C396.073 57.2749 395.506 56.8149 394.657 56.8149H391.685C391.26 56.8149 391.048 56.2841 391.048 55.2226C391.048 54.0903 391.26 53.5242 391.685 53.5242L401.876 53.8427H406.865C407.502 55.6826 412.172 68.4914 420.876 92.2692H421.301C426.255 81.6541 431.385 68.8453 436.693 53.8427ZM465.29 104.795L456.904 105.007C456.408 105.007 456.161 104.547 456.161 103.627C456.161 102.707 456.408 102.247 456.904 102.247H460.301C461.079 102.247 461.645 101.929 461.999 101.292C463.627 98.6028 466.882 91.4553 471.765 79.8495C476.648 68.173 480.151 59.3271 482.274 53.3119C482.557 52.675 483.229 52.3566 484.291 52.3566C485.423 52.3566 486.131 52.7104 486.414 53.4181C487.263 56.9564 489.74 63.6439 493.844 73.4805C498.019 83.3171 501.664 91.5261 504.778 98.1074C505.627 99.8058 506.405 100.903 507.113 101.398C507.821 101.893 508.918 102.141 510.404 102.141C510.828 102.141 511.041 102.637 511.041 103.627C511.041 104.547 510.864 105.007 510.51 105.007L500.319 104.795L488.855 105.007C488.431 105.007 488.218 104.547 488.218 103.627C488.218 102.707 488.431 102.247 488.855 102.247H493.95C494.729 102.247 495.118 101.929 495.118 101.292C495.118 101.221 493.137 95.7721 489.174 84.9448H474.419C470.951 93.5076 469.217 98.532 469.217 100.018C469.217 101.433 469.642 102.141 470.491 102.141H474.843C475.409 102.141 475.692 102.637 475.692 103.627C475.692 104.547 475.48 105.007 475.056 105.007L465.29 104.795ZM487.794 81.3357C487.581 80.6987 485.741 75.3205 482.274 65.2008H481.955C480.257 70.0837 478.24 75.462 475.905 81.3357H487.794ZM564.057 53.7365L573.823 53.5242C574.247 53.5242 574.46 54.055 574.46 55.1165C574.46 56.1072 574.247 56.6026 573.823 56.6026H570.108C569.117 56.6026 568.48 56.8503 568.197 57.3456C566.923 59.5394 566.286 75.462 566.286 105.113C566.286 105.821 565.685 106.175 564.482 106.175C563.349 106.175 562.535 105.927 562.04 105.432C547.887 88.5893 536.493 74.9312 527.86 64.4577H527.541C527.753 76.9835 527.966 87.457 528.178 95.8783C528.178 99.5582 528.709 101.398 529.77 101.398H534.016C534.441 101.398 534.653 101.964 534.653 103.097C534.653 104.158 534.441 104.689 534.016 104.689H525.206L515.546 104.901C515.192 104.901 515.015 104.406 515.015 103.415C515.015 102.353 515.192 101.823 515.546 101.823H518.094C520.288 101.823 521.42 101.115 521.491 99.6997C522.552 88.2354 523.083 74.8251 523.083 59.4686C521.951 58.1241 520.995 57.3456 520.217 57.1333C519.438 56.921 517.988 56.8149 515.865 56.8149C515.44 56.8149 515.228 56.2841 515.228 55.2226C515.228 54.0903 515.44 53.5242 515.865 53.5242L530.832 53.7365C548.028 75.5328 558.148 88.4477 561.191 92.4815H561.403C561.12 73.9405 560.872 63.3608 560.66 60.7424C560.448 58.1241 559.882 56.8149 558.962 56.8149H555.246C554.751 56.8149 554.503 56.2841 554.503 55.2226C554.503 54.0903 554.751 53.5242 555.246 53.5242L564.057 53.7365ZM580.871 53.5242L589.257 53.7365C590.035 53.7365 590.708 53.7365 591.274 53.7365L602.313 53.5242C602.809 53.5242 603.057 54.055 603.057 55.1165C603.057 56.1072 602.773 56.6026 602.207 56.6026H597.324C596.404 56.6026 595.944 57.1687 595.944 58.301V93.4368C595.944 98.8151 596.652 101.504 598.067 101.504H603.375C603.941 101.504 604.224 102.07 604.224 103.203C604.224 104.264 604.012 104.795 603.587 104.795L591.274 104.689L580.659 105.007C580.163 105.007 579.916 104.476 579.916 103.415C579.916 102.353 580.128 101.823 580.553 101.823H585.329C586.108 101.823 586.568 101.681 586.709 101.398C586.851 101.044 586.922 100.16 586.922 98.7443V65.3069C586.922 59.6456 586.214 56.8149 584.799 56.8149H580.977C580.128 56.8149 579.703 56.2841 579.703 55.2226C579.703 54.0903 580.093 53.5242 580.871 53.5242ZM613.527 104.795L605.141 105.007C604.646 105.007 604.398 104.547 604.398 103.627C604.398 102.707 604.646 102.247 605.141 102.247H608.538C609.317 102.247 609.883 101.929 610.237 101.292C611.864 98.6028 615.12 91.4553 620.002 79.8495C624.885 68.173 628.388 59.3271 630.511 53.3119C630.794 52.675 631.467 52.3566 632.528 52.3566C633.66 52.3566 634.368 52.7104 634.651 53.4181C635.5 56.9564 637.977 63.6439 642.082 73.4805C646.257 83.3171 649.902 91.5261 653.015 98.1074C653.864 99.8058 654.643 100.903 655.351 101.398C656.058 101.893 657.155 102.141 658.641 102.141C659.066 102.141 659.278 102.637 659.278 103.627C659.278 104.547 659.101 105.007 658.747 105.007L648.557 104.795L637.093 105.007C636.668 105.007 636.456 104.547 636.456 103.627C636.456 102.707 636.668 102.247 637.093 102.247H642.188C642.966 102.247 643.356 101.929 643.356 101.292C643.356 101.221 641.374 95.7721 637.411 84.9448H622.656C619.189 93.5076 617.455 98.532 617.455 100.018C617.455 101.433 617.879 102.141 618.729 102.141H623.081C623.647 102.141 623.93 102.637 623.93 103.627C623.93 104.547 623.718 105.007 623.293 105.007L613.527 104.795ZM636.031 81.3357C635.819 80.6987 633.979 75.3205 630.511 65.2008H630.193C628.494 70.0837 626.478 75.462 624.142 81.3357H636.031Z" fill="white"/>
</svg>
